#!OML:ASF F:\VICON\USERDATA\INSTALL\rory3\rory3.ASF
:FULLY-SPECIFIED
:DEGREES
350
root 0.476175 16.8576 -1.81787 1.01201 9.54808 2.62585
lowerback 12.2299 -1.07703 -3.92467
upperback 1.22043 -2.06398 -1.92996
thorax -5.51088 -0.94156 0.530321
lowerneck -11.8897 -9.40886 -15.6482
upperneck 18.5916 -12.418 12.0398
head 9.59092 -5.82317 5.1322
rclavicle 1.21259e-014 -5.1684e-015
rhumerus 22.2424 -11.397 -49.6605
rradius 70.9348
rwrist 7.88996
rhand -11.5956 10.6241
rfingers 7.12502
rthumb 14.4467 -18.8531
lclavicle 1.21259e-014 -5.1684e-015
lhumerus -4.55992 -31.1737 93.3525
lradius 125.128
lwrist -8.65026
lhand -8.62588 7.37122
lfingers 7.12502
lthumb 17.3065 36.6207
rfemur -22.1396 -10.6907 10.2958
rtibia 52.1293
rfoot -27.3608 -10.8966
rtoes -8.8589
lfemur -18.1894 -2.502 0.593747
ltibia 43.0795
lfoot -2.47982 -1.96199
ltoes -37.3182
351
root 0.544321 16.833 -1.81596 1.11287 9.66825 2.5954
lowerback 11.485 -0.962089 -4.14041
upperback 1.68979 -1.87367 -1.88866
thorax -4.60063 -0.865289 0.642268
lowerneck -12.0893 -9.54672 -15.953
upperneck 18.1972 -12.4742 12.0322
head 9.52146 -5.86238 5.15548
rclavicle -6.55989e-015 3.65764e-014
rhumerus 20.0168 -11.5732 -50.4454
rradius 75.3246
rwrist 7.23559
rhand -11.9228 11.5681
rfingers 7.12502
rthumb 14.1314 -17.9314
lclavicle -6.55989e-015 3.65764e-014
lhumerus -4.00732 -31.0072 93.2227
lradius 125.142
lwrist -8.90393
lhand -8.66259 7.11412
lfingers 7.12502
lthumb 17.2712 36.3667
rfemur -22.2612 -10.6251 10.0713
rtibia 52.3288
rfoot -27.5331 -10.9112
rtoes -8.75138
lfemur -17.6165 -2.62117 0.483718
ltibia 42.561
lfoot -4.01884 -2.57296
ltoes -37.1045
352
root 0.616537 16.8113 -1.8175 1.2569 9.809 2.61005
lowerback 10.4044 -0.847226 -4.50641
upperback 2.40059 -1.66087 -1.75086
thorax -3.25184 -0.789803 0.929948
lowerneck -12.3614 -9.75123 -16.4118
upperneck 17.4848 -12.574 12.139
head 9.38192 -5.91764 5.22988
rclavicle -7.25564e-015 -1.03368e-014
rhumerus 18.1748 -11.8108 -51.0117
rradius 79.5451
rwrist 6.89398
rhand -12.5917 12.245
rfingers 7.12502
rthumb 13.4868 -17.2983
lclavicle -7.25564e-015 -1.03368e-014
lhumerus -2.88017 -30.8326 93.0144
lradius 125.063
lwrist -9.26284
lhand -8.67867 6.90986
lfingers 7.12502
lthumb 17.2557 36.1638
rfemur -22.4096 -10.6095 9.79163
rtibia 52.5119
rfoot -27.6671 -10.9009
rtoes -8.69686
lfemur -17.1141 -2.82498 0.254643
ltibia 42.0293
lfoot -5.49344 -3.00194
ltoes -36.6865
353
root 0.693025 16.7931 -1.81865 1.43095 9.97009 2.61254
lowerback 10.3859 -0.881548 -4.63105
upperback 2.30817 -1.72399 -1.7902
thorax -3.33243 -0.817347 0.967512
lowerneck -12.2174 -9.72012 -16.5574
upperneck 17.35 -12.4704 11.9671
head 9.29085 -5.89943 5.21176
rclavicle -2.04748e-014 -7.95139e-015
rhumerus 15.4539 -11.1249 -51.8421
rradius 83.8188
rwrist 6.7054
rhand -13.2585 12.7784
rfingers 7.12502
rthumb 12.844 -16.8064
lclavicle -2.04748e-014 -7.95139e-015
lhumerus -3.12209 -30.5212 93.0963
lradius 125.129
lwrist -9.39739
lhand -8.71124 6.89576
lfingers 7.12502
lthumb 17.2244 36.1524
rfemur -22.5788 -10.6602 9.51992
rtibia 52.6659
rfoot -27.684 -11.0527
rtoes -9.36546
lfemur -16.6498 -3.06582 0.0100527
ltibia 41.473
lfoot -6.97153 -3.24156
ltoes -36.4731
354
root 0.774892 16.7747 -1.81806 1.60138 10.1501 2.6777
lowerback 10.309 -0.920987 -4.90784
upperback 2.28776 -1.79905 -1.72788
thorax -3.29638 -0.852668 1.19503
lowerneck -12.2547 -9.68088 -16.8889
upperneck 17.2638 -12.3258 11.947
head 9.26734 -5.85324 5.27774
rclavicle -1.63997e-014 -5.725e-014
rhumerus 13.0816 -10.6727 -52.9594
rradius 87.9333
rwrist 6.5067
rhand -13.4051 13.3046
rfingers 7.12502
rthumb 12.7027 -16.2891
lclavicle -1.63997e-014 -5.725e-014
lhumerus -3.26269 -30.2431 93.2723
lradius 125.176
lwrist -9.47465
lhand -8.74139 7.07276
lfingers 7.12502
lthumb 17.1954 36.3319
rfemur -22.6839 -10.7451 9.14025
rtibia 52.7672
rfoot -27.6778 -11.1027
rtoes -9.65449
lfemur -16.1888 -3.31312 -0.340213
ltibia 40.8769
lfoot -8.36229 -3.2825
ltoes -35.9838
355
root 0.861348 16.756 -1.81724 1.70867 10.3568 2.70219
lowerback 9.92015 -0.953498 -5.10452
upperback 2.54367 -1.82128 -1.6506
thorax -2.80416 -0.877268 1.37516
lowerneck -12.5129 -9.6871 -17.309
upperneck 17.0995 -12.2379 12.1836
head 9.2902 -5.80747 5.43161
rclavicle -3.32964e-014 -2.0276e-014
rhumerus 11.0112 -10.6868 -54.382
rradius 91.9943
rwrist 6.04359
rhand -13.252 13.7013
rfingers 7.12502
rthumb 12.8503 -15.8832
lclavicle -3.32964e-014 -2.0276e-014
lhumerus -2.97788 -30.1662 93.2664
lradius 125.177
lwrist -9.63004
lhand -8.69966 7.36996
lfingers 7.12502
lthumb 17.2355 36.6256
rfemur -22.6718 -10.8098 8.76142
rtibia 52.7972
rfoot -27.7434 -10.9802
rtoes -9.28287
lfemur -15.7305 -3.58418 -0.689596
ltibia 40.2531
lfoot -9.70623 -3.1993
ltoes -35.7646
356
root 0.952188 16.7447 -1.814 1.75889 10.546 2.62245
lowerback 10.225 -1.05042 -5.10852
upperback 2.30273 -1.9808 -1.61786
thorax -3.21302 -0.943017 1.44174
lowerneck -12.5299 -9.54522 -17.5003
upperneck 17.3149 -12.0052 12.1429
head 9.33995 -5.71553 5.48802
rclavicle 9.44227e-015 -1.35174e-014
rhumerus 8.15387 -10.1813 -55.9064
rradius 96.2138
rwrist 4.92344
rhand -13.0802 14.0294
rfingers 7.12502
rthumb 13.0159 -15.5446
lclavicle 9.44227e-015 -1.35174e-014
lhumerus -3.65499 -30.0084 93.5706
lradius 125.246
lwrist -9.71384
lhand -8.67655 7.2094
lfingers 7.12502
lthumb 17.2578 36.4631
rfemur -22.5568 -10.8338 8.48412
rtibia 52.7368
rfoot -27.7602 -10.956
rtoes -8.97394
lfemur -15.2481 -3.9014 -0.962084
ltibia 39.5937
lfoot -11.0646 -2.94192
ltoes -35.9598
357
root 1.04693 16.7379 -1.81329 1.92331 10.7266 2.55997
lowerback 10.031 -1.13773 -5.26133
upperback 2.35806 -2.09014 -1.44462
thorax -3.02884 -1.00143 1.714
lowerneck -12.8141 -9.52523 -17.7605
upperneck 17.3268 -11.8392 12.0042
head 9.3776 -5.65627 5.4966
rclavicle -1.07344e-014 3.57812e-015
rhumerus 5.7894 -9.91963 -57.3447
rradius 100.246
rwrist 3.15347
rhand -12.8892 14.4036
rfingers 7.12502
rthumb 13.2 -15.1585
lclavicle -1.07344e-014 3.57812e-015
lhumerus -3.63625 -29.8476 93.7916
lradius 125.262
lwrist -9.70316
lhand -8.4981 7.20907
lfingers 7.12502
lthumb 17.4295 36.4477
rfemur -22.5291 -10.8476 8.19739
rtibia 52.5948
rfoot -27.7649 -10.8902
rtoes -8.5203
lfemur -14.9462 -4.12853 -1.27891
ltibia 38.9312
lfoot -12.3761 -2.54984
ltoes -35.8871
358
root 1.14608 16.7324 -1.81312 2.08859 10.8493 2.54283
lowerback 10.0144 -1.24609 -5.36962
upperback 2.27805 -2.24371 -1.34233
thorax -3.08423 -1.07412 1.89981
lowerneck -12.9186 -9.43558 -17.5951
upperneck 17.2783 -11.6087 11.4806
head 9.29671 -5.58048 5.31516
rclavicle 1.70955e-014 3.97569e-014
rhumerus 3.36339 -9.60663 -58.9924
rradius 104.187
rwrist 1.14062
rhand -12.5075 14.6782
rfingers 7.12502
rthumb 13.5679 -14.8597
lclavicle 1.70955e-014 3.97569e-014
lhumerus -3.79947 -29.7362 93.9597
lradius 125.277
lwrist -9.56106
lhand -8.68488 7.28532
lfingers 7.12502
lthumb 17.2498 36.5397
rfemur -22.472 -10.9112 7.8343
rtibia 52.3736
rfoot -27.6258 -10.8403
rtoes -8.37635
lfemur -14.6444 -4.23426 -1.69739
ltibia 38.2986
lfoot -13.5572 -2.07889
ltoes -35.3734
359
root 1.24972 16.7285 -1.81019 2.28322 10.9241 2.62269
lowerback 10.2533 -1.36425 -5.4176
upperback 1.94944 -2.43871 -1.37639
thorax -3.54549 -1.15272 1.92891
lowerneck -12.7677 -9.2661 -17.037
upperneck 17.2657 -11.331 10.6342
head 9.13063 -5.49613 4.97453
rclavicle -2.10712e-014 1.07344e-014
rhumerus 0.708315 -9.24524 -60.816
rradius 107.925
rwrist -0.752391
rhand -12.1534 15.2646
rfingers 7.12502
rthumb 13.9091 -14.2502
lclavicle -2.10712e-014 1.07344e-014
lhumerus -4.49307 -29.6877 94.1172
lradius 125.402
lwrist -9.14628
lhand -8.86784 7.25934
lfingers 7.12502
lthumb 17.0736 36.5291
rfemur -22.4028 -11.0469 7.3373
rtibia 52.0919
rfoot -27.3541 -10.7712
rtoes -8.67362
lfemur -14.3885 -4.21264 -2.27637
ltibia 37.7707
lfoot -14.5735 -1.51298
ltoes -35.0172
360
root 1.35526 16.7269 -1.80891 2.54002 10.8933 2.60857
lowerback 10.2723 -1.44994 -5.4658
upperback 1.72862 -2.56645 -1.30074
thorax -3.77218 -1.20547 2.05558
lowerneck -12.8947 -9.17297 -17.0553
upperneck 17.4362 -11.1346 10.3945
head 9.1692 -5.42467 4.92063
rclavicle 1.35174e-014 -1.23246e-014
rhumerus -1.69555 -9.00044 -62.5012
rradius 111.45
rwrist -2.55199
rhand -11.9123 15.9941
rfingers 7.12502
rthumb 14.1415 -13.5047
lclavicle 1.35174e-014 -1.23246e-014
lhumerus -4.93856 -29.6476 94.2773
lradius 125.461
lwrist -8.90535
lhand -8.95123 7.27144
lfingers 7.12502
lthumb 16.9934 36.5481
rfemur -22.4565 -11.0171 6.97271
rtibia 51.7506
rfoot -27.1127 -10.7417
rtoes -8.37519
lfemur -14.3017 -3.88138 -2.77417
ltibia 37.3926
lfoot -15.5152 -0.931673
ltoes -34.2706
361
root 1.4613 16.7291 -1.81179 2.70054 10.7944 2.46519
lowerback 10.3618 -1.53583 -5.44728
upperback 1.59439 -2.68439 -1.14794
thorax -3.94707 -1.25633 2.22545
lowerneck -13.3132 -9.11018 -17.6037
upperneck 17.876 -10.9748 10.8027
head 9.43335 -5.34005 5.17028
rclavicle -3.18055e-014 -2.70347e-014
rhumerus -3.89526 -8.80508 -64.1938
rradius 114.726
rwrist -3.92235
rhand -11.9821 16.7808
rfingers 7.12502
rthumb 14.0743 -12.7226
lclavicle -3.18055e-014 -2.70347e-014
lhumerus -5.11748 -29.5711 94.3517
lradius 125.4
lwrist -8.98764
lhand -9.30341 7.51322
lfingers 7.12502
lthumb 16.6544 36.8187
rfemur -22.4498 -10.8117 6.7518
rtibia 51.3559
rfoot -26.9417 -10.6914
rtoes -7.79319
lfemur -14.2952 -3.21881 -3.14764
ltibia 37.1787
lfoot -16.3536 -0.442151
ltoes -33.1815
